<svg xmlns="http://www.w3.org/2000/svg" version="1.1" xmlns:xlink="http://www.w3.org/1999/xlink" xmlns:svgjs="http://svgjs.com/svgjs" width="512" height="512" x="0" y="0" viewBox="0 0 64 64" style="enable-background:new 0 0 512 512" xml:space="preserve" class=""><g><path d="m54.441 13.973-14.362-8.618c-4.88-2.927-11.277-2.927-16.158 0l-14.362 8.618c-4.663 2.797-7.559 7.913-7.559 13.35v24.586c0 4.925 4.007 8.931 8.932 8.931h42.137c4.925 0 8.932-4.006 8.932-8.931v-24.586c-.001-5.437-2.897-10.553-7.56-13.35zm-13.241 42.867h-18.4v-12.514c0-3.246 2.641-5.886 5.886-5.886h6.628c3.246 0 5.886 2.641 5.886 5.886z" fill="#000000" data-original="#000000" class=""></path></g></svg>