<svg xmlns="http://www.w3.org/2000/svg" version="1.1" xmlns:xlink="http://www.w3.org/1999/xlink" xmlns:svgjs="http://svgjs.com/svgjs" width="512" height="512" x="0" y="0" viewBox="0 0 32 32" style="enable-background:new 0 0 512 512" xml:space="preserve" class=""><g><g id="_x31_4_comment"><path d="m28 2h-24c-1.654 0-3 1.346-3 3v16c0 1.654 1.346 3 3 3h3v5c0 .385.221.734.566.901.139.066.287.099.434.099.223 0 .444-.074.625-.219l7.226-5.781h12.149c1.654 0 3-1.346 3-3v-16c0-1.654-1.346-3-3-3zm-12 14h-8c-.553 0-1-.448-1-1s.447-1 1-1h8c.553 0 1 .448 1 1s-.447 1-1 1zm8-4h-16c-.553 0-1-.448-1-1s.447-1 1-1h16c.553 0 1 .448 1 1s-.447 1-1 1z" fill="#000000" data-original="#000000" class=""></path></g></g></svg>